# xmcd CD database file
# Copyright (C) 1993-1997  Ti Kan
#
# Track frame offsets:
#	197
#	14130
#	25822
#	34877
#	57047
#	69932
#	80535
#	91275
#	100725
#	111122
#	124257
#	138010
#	147102
#	170800
#	179267
#	192717
#	200595
#	212037
#	223212
#	234397
#
# Disc length: 3294 seconds
#
# Revision: 1
# Processed by: cddbd v1.4b41PL1 Copyright (c) Steve Scherf et al.
# Submitted via: xmcd 2.1 PL1
#
DISCID=270cdc14
DTITLE=Etta Baker - One Dime Blues
DYEAR=1900
DGENRE=
TTITLE0=One-Dime Blues
TTITLE1=Never Let Your Deal Go Down
TTITLE2=Knoxville Rag
TTITLE3=Broken Hearted Blues
TTITLE4=Lost John
TTITLE5=Dew Drop
TTITLE6=Going Down The Road Feeling Bad
TTITLE7=Near The Cross I Watch And Pray
TTITLE8=Spanish Fandango
TTITLE9=Round My Back Door Selling Coal
TTITLE10=But On The Other Hand Baby
TTITLE11=Crow Jane
TTITLE12=John Henry
TTITLE13=Alabama Wagonwheel
TTITLE14=Bully Of The Town
TTITLE15=Going To The Racetrack
TTITLE16=Police Dog Blues
TTITLE17=Marching Jaybird
TTITLE18=Railroad Bill
TTITLE19=Carolina Breakdown
EXTD=
EXTT0=
EXTT1=
EXTT2=
EXTT3=
EXTT4=
EXTT5=
EXTT6=
EXTT7=
EXTT8=
EXTT9=
EXTT10=
EXTT11=
EXTT12=
EXTT13=
EXTT14=
EXTT15=
EXTT16=
EXTT17=
EXTT18=
EXTT19=
PLAYORDER=
